<svg width="42" height="29" viewBox="0 0 42 29" fill="none" xmlns="http://www.w3.org/2000/svg">
<path d="M18.4697 28.9998C16.4075 28.9998 15.536 29.0002 13.7758 28.9998C13.3175 28.9998 13.0469 28.622 13.2653 28.2255C13.8113 27.2341 16.4017 27.713 17.0498 26.4374C17.4597 25.6306 17.5043 24.668 16.6356 24.3806C14.395 23.6394 13.3682 22.7123 11.8935 21.5289C9.96707 19.983 8.3695 18.4728 7.81334 15.584C6.8151 10.3991 11.1248 6.41907 9.6687 5.90214C8.5602 5.5086 3.28901 7.32633 3.00784 6.03655C2.82529 5.19912 5.99924 5.12449 6.51181 3.22298C7.02437 1.32148 8.37258 0.140139 10.1572 0.00906871C12.1228 -0.135294 13.735 1.46892 14.5051 3.03613C14.8256 3.68825 14.8938 5.03644 14.676 6.38114L14.6713 6.41005C14.4809 7.58536 14.103 9.91772 15.2076 9.98745C16.3689 10.0607 18.3784 9.46425 23.6187 10.2304C27.7567 10.9558 32.9875 13.6847 34.9903 13.6039C37.3371 13.5093 39.1431 12.6345 39.9008 13.6422C40.6126 14.5888 37.2601 17.2589 37.2453 18.0283C37.2231 19.1856 32.4141 24.3367 28.8604 24.2368C27.0281 24.1853 29.6905 28.9998 27.8575 28.9998C26.684 28.9998 26.0973 28.9998 24.3371 28.9995C23.8247 28.9994 23.376 28.7482 23.376 28.244C23.376 27.2355 26.065 27.6977 26.0973 26.6898C26.125 25.8259 25.9555 25.0199 25.626 24.7326C25.2017 24.3628 20.9423 24.3822 20.3259 24.7326C19.9023 24.9735 20.2299 28.9998 18.4697 28.9998Z" fill="#75706F"/>
</svg>
