<svg width="42" height="29" viewBox="0 0 42 29" fill="none" xmlns="http://www.w3.org/2000/svg">
<g clip-path="url(#clip0_390_138)">
<path d="M37.2695 18.2924C36.8844 18.8827 38.8152 23.62 38.8152 23.62C39.1562 24.4001 39.4549 25.7446 39.5303 26.8677C39.6036 27.9589 39.7342 29 38.1315 29H35.921C35.3684 29 35.2579 28.4646 35.3684 28.1412C35.4768 27.6778 35.6882 27.3054 36.0006 26.9487C36.4265 26.3355 36.211 25.5757 36.1089 24.9177C36.0068 24.2597 34.7991 20.1501 33.2682 20.5231C31.7374 20.896 31.5504 24.443 30.1427 26.4486C29.6572 27.1404 29.621 29 28.7368 29H26.5263C25.9736 29 25.6444 28.4154 25.7438 28.092C26.0975 27.0435 27.0724 26.8759 27.6315 25.8881C28.4193 24.4965 28.631 24.2022 28.6655 22.8182C28.6323 21.6916 28.4951 20.6677 27.6315 20.3669C26.3623 19.9249 22.6111 18.9098 20.7864 20.8729C18.9617 22.836 20.9346 23.7788 20.2147 25.8812C19.7905 27.1199 19.541 29 18.4357 29H17.1315C16.4242 29 16.1086 28.7086 16.0231 28.1025C15.938 27.4993 16.6731 26.5108 16.9234 25.9563C17.5378 24.5952 16.922 18.0774 14.4973 21.3318C12.0726 24.5863 13.025 25.9462 12.806 27.3556C12.5871 28.7649 12.4342 29 11.6052 29H9.3947C8.84207 29 8.71938 28.4288 8.75982 28.0382C8.85654 27.104 9.69444 26.7894 10.0689 25.81C10.5087 24.6599 10.6286 23.7682 10.6547 22.7092C10.6808 21.6503 10.2003 17.6543 9.64104 17.2727C9.08181 16.891 9.26459 16.2554 8.95787 15.7609C8.65116 15.2664 8.47085 14.7029 8.43312 14.1208C8.42322 14.0028 8.37233 13.8922 8.28944 13.8085C7.70374 13.1655 7.39039 12.3168 7.41628 11.4439C7.26922 11.1668 7.1507 10.8753 7.0626 10.5739C7.01839 10.4289 6.91263 10.2379 6.91263 10.0929C6.90791 9.95468 6.72271 9.78501 6.55361 9.67125C6.38452 9.55748 6.18175 9.50598 5.97944 9.52539C5.39365 9.55885 4.79681 9.715 4.19997 9.715C3.78207 9.76697 3.36077 9.78562 2.93997 9.77077C2.69115 9.76341 2.45085 9.67774 2.25267 9.52574C2.05449 9.37375 1.90835 9.16303 1.8347 8.92308C1.74702 8.668 1.67685 8.40713 1.6247 8.14231C1.58321 7.96547 1.58153 7.78149 1.61978 7.60391C1.65804 7.42632 1.73525 7.25965 1.84576 7.11616C2.12207 6.72577 2.39839 6.31308 2.69681 5.93385C3.27976 5.20675 3.74256 4.38944 4.06733 3.51347C4.32983 2.85368 4.75135 2.27044 5.29369 1.81663C5.83603 1.36281 6.48203 1.05278 7.17312 0.91462C8.15712 0.645821 9.20662 0.782221 10.091 1.29385C10.2086 1.33834 10.3382 1.33834 10.4558 1.29385C11.1115 1.09526 11.8154 1.13472 12.4452 1.40539C12.6713 1.49395 12.8779 1.62661 13.0531 1.79577C13.1688 1.88873 13.2591 2.00979 13.3157 2.14762C13.3724 2.28544 13.3934 2.43552 13.3768 2.58378C13.3602 2.73204 13.3066 2.87362 13.221 2.99526C13.1354 3.1169 13.0206 3.21461 12.8873 3.27924C12.8873 3.27924 12.1579 3.44989 12.4773 3.61629C12.7968 3.7827 13.0652 4.22319 13.451 4.45039C13.5274 4.46806 13.6067 4.46806 13.6831 4.45039C14.8129 4.50094 15.9295 4.71505 16.9989 5.08616C18.0344 4.73212 19.1624 4.77178 20.171 5.1977C20.2781 5.2369 20.3955 5.2369 20.5026 5.1977C21.6254 4.73465 22.8835 4.73465 24.0063 5.1977C24.1096 5.2371 24.2235 5.2371 24.3268 5.1977C24.8848 4.96057 25.4842 4.83842 26.0897 4.83842C26.6952 4.83842 27.2946 4.96057 27.8526 5.1977C27.9456 5.23087 28.047 5.23087 28.14 5.1977C29.2507 4.75131 30.4887 4.75131 31.5994 5.1977C31.6932 5.22558 31.793 5.22558 31.8868 5.1977C32.632 4.95104 33.4346 4.94298 34.1845 5.17461C34.9344 5.40624 35.595 5.86623 36.0758 6.49154C36.1667 6.58692 36.2811 6.65621 36.4073 6.69231C37.2064 6.83894 37.9288 7.2646 38.4482 7.89472C38.9675 8.52485 39.2506 9.31927 39.2479 10.1389C39.2761 10.6728 39.1855 11.2064 38.9826 11.7004C38.9662 11.7392 38.9577 11.7809 38.9577 11.8231C38.9577 11.8653 38.9662 11.907 38.9826 11.9458C39.2772 12.6052 39.3276 13.3494 39.1248 14.0432C38.922 14.737 38.4794 15.3344 37.8773 15.7269C37.7853 15.8017 37.8917 16.1887 37.8774 16.3071C37.8655 17.0136 37.6546 17.7022 37.2695 18.2924Z" fill="#75706F"/>
</g>
<defs>
<clipPath id="clip0_390_138">
<rect width="42" height="29" fill="white"/>
</clipPath>
</defs>
</svg>
