<svg width="402" height="581" viewBox="0 0 402 581" fill="none" preserveAspectRatio="xMidYMid slice" xmlns="http://www.w3.org/2000/svg">
<path class="p_sweep" pathLength="1" d="M-3.34694 562.211C8.45318 574.596 24.1985 569.932 40.0823 562.386C55.9661 554.84 71.4719 520.402 58.7234 511.203C45.9748 502.004 33.5044 516.554 39.6306 525.715C45.7569 534.877 64.5115 537.788 79.726 533.105C94.4724 528.565 94.6021 512.908 108.287 505.777C119.601 499.883 126.198 505.029 139.956 497.783C147.283 493.925 155.26 497.732 160.082 504.477C169.262 517.317 170.557 550.827 190.781 547.261C198.072 545.975 203.158 536.609 197.864 534.565C193.514 532.884 193.516 540.49 188.857 540.316C180.86 540.017 176.71 524.887 173.929 516.494C166.557 494.247 143.845 488.9 148.858 483.349C154.483 477.121 162.485 493.736 171.37 493.738C184.726 493.742 184.492 486.015 197.315 485.404C210.138 484.792 214.938 499.169 232.38 497.811C246.3 496.727 245.203 492.977 270.588 507.413C292.508 519.878 309.083 486.072 328.922 472.234C348.761 458.397 403.879 462.651 411.259 483.426C420.744 510.127 364.476 519.933 373.944 488.161C383.412 456.39 334.587 445.432 344.666 421.421C350.817 406.767 376.508 410.441 402 406.03" stroke="currentColor" stroke-width="1" stroke-linecap="round"/>
<path class="p_lcat" pathLength="1" d="M127.864 496.649C119.559 496.649 110.206 487.079 107.69 476.126C105.099 464.844 106.643 456.532 104.466 444.186C101.12 425.211 108.508 418.659 108.866 414.514C109.262 409.929 106.35 407.424 107.786 403.266C109.779 397.497 113.876 394.554 113.008 388.499C111.704 379.398 106.503 373.774 107.808 364.132C108.968 355.57 115.52 354.946 117.221 344.11C118.128 338.338 118.563 331.232 123.233 330.408C128.693 329.446 128.762 337.862 132.402 341.434C138.119 347.045 140.167 349.521 148.13 350.4C154.343 351.085 161.73 342.868 166.229 347.208C169.131 350.008 157.148 361.246 157.469 369.221C157.914 380.28 153.499 387.68 141.255 391.645C134.3 393.898 124.758 389.325 125.664 386.869C127.09 383.006 137.913 387.091 142.766 391.68C152.158 400.559 156.187 407.087 158.87 419.844C160.043 425.424 156.35 429.97 159.932 434.406C168.019 444.418 178.951 449.882 179.212 463.515C179.406 473.661 179.055 484.893 169.179 487.228C161.152 489.126 153.534 487.924 147.539 489.896C142.312 491.616 139.1 496.649 127.864 496.649Z" stroke="currentColor" stroke-width="1"/>
<path class="p_climb" pathLength="1" d="M0.000144117 288.803C27.5332 249.662 50.5145 268.911 122.825 253.457C196.34 237.747 195.277 193.282 196.044 184.389C196.48 179.334 193.114 174.928 188.04 172.828C179.444 169.271 168.476 180.239 183.001 186.76C193.273 191.372 201.083 177.571 214.719 179.646C214.719 179.646 225.445 183.082 232.505 182.907C244.906 182.599 249.915 174.13 261.851 170.753C268.908 168.757 273.218 169.047 280.23 166.899" stroke="currentColor" stroke-width="1" stroke-linecap="round"/>
<path class="p_rcat" pathLength="1" d="M280.23 166.899C282.145 165.969 283.01 163.276 282.305 161.267C281.403 158.696 277.266 160.082 275.487 160.378C274.302 160.576 281.712 150.003 282.009 142.889C282.277 136.4643 282.009 129.8456 275.487 127.7706C272.288 126.7527 269.262 131.3277 269.262 133.6992C269.262 139.3314 274.649 141.116 275.487 133.4027C276.969 119.7669 268.669 108.5025 270.448 105.2418C272.227 101.981 277.113 100.0424 277.859 94.5702C278.748 88.0487 277.872 84.2193 276.97 77.6736C276.324 72.9957 279.205 66.8541 274.598 65.8164C270.442 64.8803 270.679 72.0175 266.594 73.2272C263.137 74.251 260.982 71.8883 257.405 72.3379C253.551 72.8222 251.564 74.6733 250.587 74.4129C246.141 73.2271 244.658 64.9961 241.101 65.8164C237.841 66.5683 239.706 74.835 239.916 80.6379C239.916 80.6379 234.222 98.327 241.694 102.5739C245.24 104.589 251.773 105.5382 252.069 103.7596C252.235 102.7678 249.561 101.672 248.809 101.6846C247.234 101.7108 247.03 102.8703 245.844 104.1597C244.347 105.7877 242.287 106.4275 241.398 107.9096C240.508 109.3918 241.694 116.2689 241.101 118.2847C238.137 128.3634 231.494 132.5159 231.023 142.889C230.726 149.41 234.58 153.56 234.283 157.414C234.096 159.849 231.319 160.378 231.023 161.86C230.46 164.671 234.036 165.22 236.358 166.899C244.518 172.799 251.18 170.753 261.851 170.753" stroke="currentColor" stroke-width="1" stroke-linecap="round"/>
<path class="p_tail" pathLength="1" d="M280.23 166.899C294.887 162.411 302.463 159.192 314.913 148.521C325.041 139.8396 334.181 146.149 349.299 139.6278C360.926 134.6122 355.82 128.067 379.238 127.1777C388.843 126.8129 403.546 131.0313 403.546 131.0313" stroke="currentColor" stroke-width="1" stroke-linecap="round"/>
<path class="p_faint" pathLength="1" d="M402 323.806C349.445 360.42 297.264 405.295 223.327 415.342C207.249 417.526 176.913 428.042 161.026 433.726" stroke="currentColor" stroke-opacity="0.4" stroke-width="1" stroke-linecap="round"/>
<path class="p_faint" pathLength="1" d="M102.376 435.951C92.0028 434.468 91.5593 428.837 87.305 421.272C68.7701 388.313 110.659 354.076 81.9996 330.257C60.4983 312.388 44.4895 343.701 24.7077 323.791C-1.61855 297.294 79.8221 264.497 59.2073 232.981C48.1331 216.051 21.8824 217.345 0 222.151" stroke="currentColor" stroke-opacity="0.4" stroke-width="1" stroke-linecap="round"/>
<path class="p_faint" pathLength="1" d="M402 269.5C388.5 268 386.589 251.33 380.363 242.686C373.644 233.357 357.03 223.2 345.199 225.441C328.058 228.686 322.976 236.749 329.727 250.32C336.77 264.475 369.831 257.105 364.328 226.289C358.272 192.37 313.337 216.394 284.155 198.3C273.004 191.386 260.835 186.797 251.241 176.813" stroke="currentColor" stroke-opacity="0.4" stroke-width="1" stroke-linecap="round"/>
<path class="p_faint" pathLength="1" d="M0 121.5591C3.1502 124.7539 6.15662 127.9796 9.03091 131.1813C36.0368 161.264 64.3282 156.415 76.2643 155.044C114.935 150.602 186.544 98.7692 193.29 82.9512C200.041 67.119 211.012 72.4906 214.67 64.0091C222.043 46.9078 185.642 36.0201 181.193 55.2449C177.625 70.6643 205.301 109.5438 230.683 145.432" stroke="currentColor" stroke-opacity="0.4" stroke-width="1" stroke-linecap="round"/>
</svg>
